<?xml version="1.0" encoding="UTF-8" standalone="no"?>
<!DOCTYPE svg PUBLIC "-//W3C//DTD SVG 1.1//EN" "http://www.w3.org/Graphics/SVG/1.1/DTD/svg11.dtd">
<svg width="100%" height="100%" viewBox="0 0 1173 1245" version="1.1" xmlns="http://www.w3.org/2000/svg" xmlns:xlink="http://www.w3.org/1999/xlink" xml:space="preserve" xmlns:serif="http://www.serif.com/" style="fill-rule:evenodd;clip-rule:evenodd;stroke-linejoin:round;stroke-miterlimit:2;">
    <g transform="matrix(1,0,0,1,-302.764,-44.2702)">
        <g transform="matrix(2.77778,0,0,-2.77778,302.764,158.487)">
            <path d="M0,0C22.52,13.903 45.223,27.47 67.957,41.067C68.323,-63.954 67.743,-168.945 68.231,-273.966C57.659,-279.71 47.576,-286.311 37.217,-292.453C24.781,-299.817 12.528,-307.547 0.03,-314.789C-0.031,-209.86 0.03,-104.93 0,0" style="fill:rgb(127,197,222);fill-rule:nonzero;"/>
        </g>
        <g transform="matrix(2.77778,0,0,-2.77778,689.807,239.376)">
            <path d="M0,0C-0.03,-58.24 0.123,-116.51 -0.061,-174.75C12.498,-174.873 25.056,-174.873 37.645,-174.75C37.645,-135.7 37.92,-96.618 37.431,-57.568C47.79,-96.496 58.271,-135.394 68.11,-174.445C81.86,-175.239 95.641,-174.659 109.391,-174.811C119.596,-137.38 129.099,-99.705 138.694,-62.121C138.786,-99.674 138.633,-137.228 138.725,-174.811C152.475,-174.873 166.195,-174.72 179.915,-174.964C180.037,-116.633 180.189,-58.271 179.853,0.061C162.406,-0.061 144.927,-0.153 127.48,0.122C114.647,-46.598 102.485,-93.501 90.263,-140.375C78.438,-93.563 66.979,-46.628 54.848,0.122C36.576,-0.184 18.303,0 0,0M-71.379,70.188C28.723,70.279 128.825,70.218 228.926,70.218C240.171,70.493 251.08,60.99 251.385,49.531C251.935,33.184 251.324,16.806 251.569,0.458C251.935,-81.188 251.783,-162.833 251.66,-244.479C144.072,-245.03 36.484,-244.235 -71.104,-244.846C-71.593,-139.825 -71.012,-34.834 -71.379,70.188" style="fill:rgb(57,165,204);fill-rule:nonzero;"/>
        </g>
        <g transform="matrix(2.77778,0,0,-2.77778,1056.82,1004.98)">
            <path d="M0,0C-6.172,-22.123 -12.528,-44.185 -18.944,-66.246C-13.414,-66.246 -7.853,-66.276 -2.322,-66.307C-1.1,-61.602 0.122,-56.896 1.253,-52.19C7.854,-51.763 14.453,-51.763 21.084,-51.915C22.52,-56.498 23.742,-61.174 24.873,-65.879C30.647,-66.307 36.423,-66.338 42.229,-66.246C35.323,-44.185 28.876,-22.001 22.215,0.152C14.789,0.092 7.395,0.061 0,0M-71.562,0.03C-64.657,-13.048 -57.537,-26.034 -51.12,-39.326C-49.715,-48.218 -50.814,-57.293 -50.509,-66.246C-44.979,-66.246 -39.417,-66.215 -33.887,-66.215C-32.848,-55.307 -36.697,-43.207 -30.464,-33.429C-24.476,-22.275 -19.036,-10.817 -12.619,0.092C-18.425,0.092 -24.23,0.061 -30.006,-0.031C-33.887,-9.289 -37.828,-18.486 -41.801,-27.684C-46.109,-18.548 -49.867,-9.197 -53.962,0.03C-59.829,0.061 -65.695,0.061 -71.562,0.03M-107.19,0.152C-113.516,-22.001 -119.719,-44.185 -126.227,-66.276L-109.513,-66.276C-108.321,-61.51 -107.129,-56.743 -105.938,-51.977C-99.276,-51.823 -92.646,-51.823 -85.985,-51.915C-84.732,-56.621 -83.479,-61.326 -82.257,-66.032C-76.543,-66.215 -70.859,-66.276 -65.146,-66.307C-71.715,-44.185 -78.438,-22.093 -85.068,0.03C-92.462,0.061 -99.827,0.092 -107.19,0.152M119.444,276.074C129.803,276.074 140.161,276.074 150.52,276.013C150.55,149.908 150.52,23.803 150.55,-102.271C29.578,-101.996 -91.363,-102.363 -212.304,-102.088C-224.557,-101.905 -235.618,-90.63 -234.273,-78.163C-234.273,-48.034 -234.273,-17.876 -234.243,12.283C-223.884,18.425 -213.801,25.025 -203.229,30.77C-95.641,31.381 11.947,30.586 119.535,31.137C119.658,112.782 119.811,194.428 119.444,276.074" style="fill:rgb(54,104,127);fill-rule:nonzero;"/>
        </g>
        <g transform="matrix(2.77778,0,0,-2.77778,789.539,1039.1)">
            <path d="M0,0C2.536,-8.952 4.706,-18.027 6.723,-27.103L-6.386,-27.103C-4.583,-17.997 -2.383,-8.983 0,0" style="fill:rgb(54,104,127);fill-rule:nonzero;"/>
        </g>
        <g transform="matrix(2.77778,0,0,-2.77778,1087.8,1035.87)">
            <path d="M0,0C2.261,-9.441 4.217,-18.975 6.753,-28.355C2.23,-28.233 -2.322,-28.111 -6.845,-28.02C-4.37,-18.73 -2.384,-9.319 0,0" style="fill:rgb(54,104,127);fill-rule:nonzero;"/>
        </g>
    </g>
</svg>
